<svg xmlns="http://www.w3.org/2000/svg" viewBox="0 0 19 10" aria-labelledby="usa-flag-title">
  <title id="usa-flag-title">Bandeira dos Estados Unidos</title>
  <rect width="19" height="10" fill="#B22234"/>
  <rect width="19" height="0.77" y="0.77" fill="#fff"/>
  <rect width="19" height="0.77" y="2.31" fill="#fff"/>
  <rect width="19" height="0.77" y="3.85" fill="#fff"/>
  <rect width="19" height="0.77" y="5.38" fill="#fff"/>
  <rect width="19" height="0.77" y="6.92" fill="#fff"/>
  <rect width="19" height="0.77" y="8.46" fill="#fff"/>
  <rect width="7.6" height="5.38" fill="#3C3B6E"/>
  <g fill="#fff">
    <g transform="scale(0.3)">
      <polygon points="1,1 1.5,2.5 3,2.5 1.8,3.4 2.3,4.9 1,4 -0.3,4.9 0.2,3.4 -1,2.5 0.5,2.5"/>
      <polygon points="3,1 3.5,2.5 5,2.5 3.8,3.4 4.3,4.9 3,4 1.7,4.9 2.2,3.4 1,2.5 2.5,2.5"/>
      <polygon points="5,1 5.5,2.5 7,2.5 5.8,3.4 6.3,4.9 5,4 3.7,4.9 4.2,3.4 3,2.5 4.5,2.5"/>
      <polygon points="7,1 7.5,2.5 9,2.5 7.8,3.4 8.3,4.9 7,4 5.7,4.9 6.2,3.4 5,2.5 6.5,2.5"/>
      <polygon points="9,1 9.5,2.5 11,2.5 9.8,3.4 10.3,4.9 9,4 7.7,4.9 8.2,3.4 7,2.5 8.5,2.5"/>
      <polygon points="11,1 11.5,2.5 13,2.5 11.8,3.4 12.3,4.9 11,4 9.7,4.9 10.2,3.4 9,2.5 10.5,2.5"/>
    </g>
    <g transform="translate(0,2) scale(0.3)">
      <polygon points="2,1 2.5,2.5 4,2.5 2.8,3.4 3.3,4.9 2,4 0.7,4.9 1.2,3.4 0,2.5 1.5,2.5"/>
      <polygon points="4,1 4.5,2.5 6,2.5 4.8,3.4 5.3,4.9 4,4 2.7,4.9 3.2,3.4 2,2.5 3.5,2.5"/>
      <polygon points="6,1 6.5,2.5 8,2.5 6.8,3.4 7.3,4.9 6,4 4.7,4.9 5.2,3.4 4,2.5 5.5,2.5"/>
      <polygon points="8,1 8.5,2.5 10,2.5 8.8,3.4 9.3,4.9 8,4 6.7,4.9 7.2,3.4 6,2.5 7.5,2.5"/>
      <polygon points="10,1 10.5,2.5 12,2.5 10.8,3.4 11.3,4.9 10,4 8.7,4.9 9.2,3.4 8,2.5 9.5,2.5"/>
    </g>
  </g>
</svg>